<?xml version="1.0" encoding="UTF-8"?>
<svg data-bbox="8.56 4.71 319.24 320.31" viewBox="0 0 338.55 338.13" xmlns="http://www.w3.org/2000/svg" data-type="color">
    <g>
        <path d="M27.98 197.15h14.4c1.44 24.72 20.88 39.12 49.92 39.12s44.64-12.24 44.64-31.68c0-17.52-13.68-27.84-47.52-35.28-41.28-9.6-58.8-23.52-58.8-48.72 0-26.88 21.84-44.64 57.6-44.64s59.52 18.72 60.72 51.12h-14.4c-1.2-23.76-18.24-37.2-46.32-37.2s-42.96 12.24-42.96 30.72c0 16.8 12.48 27.12 47.76 35.04 42.48 9.84 58.8 24.72 58.8 48.72 0 28.08-23.04 45.84-59.52 45.84-38.4 0-63.12-20.64-64.32-53.04" fill="#122754" data-color="1"/>
        <path d="M152.08 77.06h94.39c35.49 0 57.42 17.45 57.42 45.95 0 17.2-7.89 30.96-21.44 38.83 16.02 6.88 26.37 21.87 26.37 40.3 0 28.01-23.66 46.94-58.16 46.94h-98.57V77.06Zm78.37 66.6c9.61 0 15.03-4.91 15.03-13.27s-5.42-13.27-15.03-13.27H209.5v26.54zm3.2 64.87c9.86 0 15.53-4.91 15.53-13.52s-5.67-13.76-15.53-13.76H209.5v27.28z" fill="#122754" data-color="1"/>
        <path fill="#122754" d="M327.79 305.04v19.98H8.56v-19.98z" data-color="1"/>
        <path fill="#122754" d="M327.8 22.71v282.33h-19.53V22.71z" data-color="1"/>
        <path fill="#122754" d="M28.56 24.36v280.68h-20V24.36z" data-color="1"/>
        <path fill="#122754" d="M327.79 4.71v20H8.56v-20z" data-color="1"/>
    </g>
</svg>